<svg width="12" height="12" xmlns="http://www.w3.org/2000/svg">
 <title/>
 <desc/>

 <g>
  <title>background</title>
  <rect fill="none" id="canvas_background" height="14" width="14" y="-1" x="-1"/>
 </g>
 <g>
  <title>Layer 1</title>
  <path stroke="null" id="search" d="m7.833037,8.5176c-0.796589,0.537492 -1.771269,0.85364 -2.823925,0.85364c-2.690555,0 -4.871681,-2.065381 -4.871681,-4.613156c0,-2.547776 2.181126,-4.613156 4.871681,-4.613156c2.690555,0 4.871681,2.065381 4.871681,4.613156c0,1.273888 -0.545279,2.427177 -1.426881,3.261995l3.437321,3.254913c0.157648,0.149282 0.153813,0.388639 -0.004453,0.538507c-0.159373,0.150915 -0.412878,0.151757 -0.568686,0.004217l-3.485058,-3.300116l0,0zm-2.823925,0.310916c2.374022,0 4.298542,-1.822392 4.298542,-4.070432c0,-2.24804 -1.92452,-4.070432 -4.298542,-4.070432c-2.374022,0 -4.298542,1.822392 -4.298542,4.070432c0,2.24804 1.92452,4.070432 4.298542,4.070432l0,0z"/>
 </g>
</svg>