<svg id="Layer_1" enable-background="new 0 0 512.033 512.033" height="512" viewBox="0 0 512.033 512.033" width="512" xmlns="http://www.w3.org/2000/svg"><g><g><path d="m15.019 512.033c-3.978 0-7.793-1.581-10.606-4.394s-4.394-6.628-4.394-10.606v-4.004c0-53.486 43.514-97 97-97h317.996c53.486 0 97 43.514 97 97v4c0 8.284-6.716 15-15 15z" fill="#b9dd39"/></g><path d="m415.014 396.029h-158.998v116.002l240.998-.002c8.284 0 15-6.716 15-15v-4c0-53.486-43.514-97-97-97z" fill="#90cc1c"/><path clip-rule="evenodd" d="m256.015 0c95.699 0 174 78.852 174 175.225v86.611c0 96.372-78.301 175.225-174 175.225s-174-78.851-174-175.225v-86.611c0-96.374 78.3-175.225 174-175.225z" fill="#ffe4c1" fill-rule="evenodd"/><path clip-rule="evenodd" d="m256.016 0v437.062c95.698 0 173.999-78.854 173.999-175.225v-86.611c0-96.373-78.3-175.225-173.999-175.226z" fill="#fdd1a3" fill-rule="evenodd"/><path d="m427.296 144.384c-14.576-81.8-86.024-144.384-171.281-144.384-85.26 0-156.707 62.585-171.282 144.389 15.412 4.954 31.467 7.467 47.868 7.467 48.557 0 94.015-22.631 123.415-60.301 29.401 37.669 74.859 60.301 123.415 60.301 16.387-.001 32.447-2.517 47.865-7.472z" fill="#453d81"/><path d="m193.917 276.302c-11.339 0-27.275-9.495-30.685-11.612-9.048-5.616-24.816-17.235-28.76-31.953-2.071-7.73-1.008-15.804 2.993-22.734s10.462-11.888 18.191-13.959c7.405-1.984 15.023-1.082 21.527 2.299 3.941-6.18 10.088-10.77 17.494-12.754 7.73-2.07 15.803-1.008 22.733 2.993s11.888 10.462 13.959 18.191c4.273 15.947-3.654 33.775-8.759 42.982-5.844 10.54-15.811 23.69-24.668 26.063-1.245.333-2.599.484-4.025.484z" fill="#ff415b"/><path d="m318.112 276.302c-1.427 0-2.778-.15-4.025-.484-8.857-2.374-18.824-15.523-24.669-26.063-5.104-9.208-13.031-27.035-8.758-42.982 2.07-7.729 7.028-14.19 13.958-18.191 6.933-4.001 15.006-5.062 22.734-2.993 7.405 1.984 13.552 6.574 17.493 12.754 6.504-3.381 14.12-4.282 21.527-2.299 7.729 2.071 14.19 7.029 18.191 13.959s5.063 15.004 2.992 22.734c-3.943 14.718-19.711 26.337-28.759 31.953-3.409 2.117-19.345 11.612-30.684 11.612z" fill="#e50058"/><path d="m256.016 0v91.555c29.401 37.669 74.859 60.3 123.414 60.3 16.387 0 32.448-2.516 47.866-7.471-14.576-81.8-86.023-144.383-171.28-144.384z" fill="#38336b"/></g></svg>