<svg height="511pt" viewBox="-72 1 511 511.99723" width="511pt" xmlns="http://www.w3.org/2000/svg"><path d="m252.929688 75.15625c-4.179688 18.972656-19.570313 31.714844-34.382813 28.460938-14.808594-3.253907-23.429687-21.269532-19.25-40.242188s19.574219-31.714844 34.382813-28.460938c14.8125 3.253907 23.429687 21.269532 19.25 40.242188zm0 0" fill="#a6cdde"/><path d="m72.992188 145.867188c-1.597657-3.464844-1.765626-8.144532-4.882813-10.808594-31.476563-26.890625-57.386719-86.890625-11.007813-114.074219 75.390626-44.195313 124.984376 33.410156 205.882813 42.386719 32.507813 3.609375 77.660156 32.46875 33.378906 96.875zm0 0" fill="#d9f4ff"/><path d="m262.984375 63.371094c-75.300781-8.355469-123.484375-76.15625-190.597656-49.851563 39.058593 13.300781 76.785156 44.371094 126.183593 49.851563 31.832032 3.535156 75.765626 31.28125 36.019532 92.898437l61.773437 3.976563c44.28125-64.40625-.871093-93.265625-33.378906-96.875zm0 0" fill="#a6cdde"/><path d="m226.113281 362.773438c0 12.871093-7.648437 23.300781-17.085937 23.300781h-50.039063c-9.4375 0-17.089843-10.429688-17.089843-23.300781v-86.550782c0-12.871094 7.652343-23.300781 17.089843-23.300781h50.039063c9.4375 0 17.085937 10.429687 17.085937 23.300781zm0 0" fill="#ffcdcd"/><path d="m359.050781 469.621094-23.15625-96.867188c-7.269531-23.929687-31.699219-54.203125-70.800781-54.203125h-38.964844l-.058594.089844c-20.054687 29.90625-64.179687 29.859375-84.171874-.089844h-39.160157c-39.097656 0-60.800781 26.429688-70.796875 54.203125l-23.15625 96.867188c-4.257812 17.800781 9.359375 34.878906 27.804688 34.878906h294.65625c18.445312 0 32.058594-17.074219 27.804687-34.878906zm0 0" fill="#f1eff2"/><path d="m359.050781 469.621094-23.15625-96.867188c-7.269531-23.929687-31.699219-54.203125-70.800781-54.203125h-38.964844l-.058594.089844c-.09375.140625-.199218.269531-.292968.40625 34.210937 3.945313 55.679687 31.539063 62.414062 53.707031l23.15625 96.867188c4.257813 17.800781-9.359375 34.878906-27.804687 34.878906h47.699219c18.449218 0 32.0625-17.074219 27.808593-34.878906zm0 0" fill="#e0dee1"/><path d="m284.042969 133.714844c-1.265625-.128906-2.527344.058594-3.761719.515625 0 0-19.652344 14.503906-65.21875-.878907-22.292969-7.527343-38.515625-39.101562-90.421875-27.136718-21.835937 5.035156-37.085937 28.015625-37.085937 28.015625-1.234376-.457031-2.496094-.644531-3.761719-.515625-8.304688.84375-13.6875 14.730468-12.019531 31.015625 1.667968 16.289062 9.753906 28.804687 18.058593 27.960937.226563-.023437.453125-.058594.679688-.101562 10.214843 52.449218 41.570312 90.402344 93.40625 90.402344 51.832031 0 83.1875-37.953126 93.402343-90.402344.226563.042968.453126.078125.683594.101562 8.300782.84375 16.386719-11.671875 18.054688-27.960937 1.667968-16.285157-3.714844-30.171875-12.015625-31.015625zm0 0" fill="#ffe1d6"/><path d="m284.042969 133.714844c-1.265625-.128906-2.527344.058594-3.761719.515625 0 0-10.078125 7.429687-32.519531 6.007812 7.777343 51.089844-1.25 107.515625-45.808594 141.09375 41.121094-7.820312 66.398437-42.6875 75.367187-88.746093.226563.042968.453126.082031.683594.105468 8.300782.84375 16.386719-11.671875 18.054688-27.960937 1.667968-16.285157-3.714844-30.171875-12.015625-31.015625zm0 0" fill="#ffcdcd"/><path d="m201.644531 384.101562h-35.277343v-32.972656c0-5.570312 4.515624-10.082031 10.085937-10.082031h15.105469c5.570312 0 10.082031 4.511719 10.082031 10.082031v32.972656zm0 0" fill="#778ca3"/><path d="m166.347656 373.917969-19.601562 129.546875h74.519531l-19.644531-129.546875zm0 0" fill="#778ca3"/><path d="m184.011719 210.027344s10.234375-27.902344 24.425781-9.761719c10.15625 12.980469 27.089844 16.9375 27.089844 16.9375s-40.746094 27.9375-51.515625-7.175781zm0 0" fill="#7f8194"/><path d="m184.011719 210.027344s-10.234375-27.902344-24.425781-9.761719c-10.15625 12.980469-27.09375 16.9375-27.09375 16.9375s40.746093 27.9375 51.519531-7.175781zm0 0" fill="#7f8194"/><path d="m366.347656 467.878906-23.15625-96.867187c-.035156-.148438-.078125-.292969-.121094-.4375-8.707031-28.667969-36.824218-59.523438-77.976562-59.523438h-31.480469v-33.96875c6.496094-3.957031 12.515625-8.765625 17.992188-14.394531 15.074219-15.511719 26.050781-37.273438 31.925781-63.199219 10.066406-3.203125 18.195312-16.464843 19.988281-33.992187.085938-.832032.035157-1.578125-.128906-2.246094 13.15625-19.515625 25.921875-47.542969 14.445313-72.632812-10.210938-22.320313-35.484376-32.640626-54.023438-34.699219-1.132812-.125-2.257812-.265625-3.378906-.417969-3.046875-14.449219-12.488282-25.132812-25.144532-27.914062-10.503906-2.308594-21.652343 1.429687-30.21875 9.851562-7.296874-3.476562-14.449218-7.160156-21.527343-10.804688-20.65625-10.632812-40.167969-20.675781-61.164063-24.777343-23.972656-4.675781-46.5625-.539063-69.074218 12.65625-12.0625 7.074219-20.496094 16.566406-25.070313 28.214843-1.511719 3.855469.386719 8.207032 4.242187 9.71875 3.855469 1.515626 8.210938-.382812 9.722657-4.242187 3.3125-8.4375 9.601562-15.421875 18.695312-20.75 42.769531-25.070313 76.605469-7.648437 115.78125 12.519531 26.015625 13.390625 52.917969 27.242188 85.480469 30.855469 14.644531 1.625 34.4375 9.417969 42.035156 26.027344 5.238282 11.449219 3.800782 25.851562-4.09375 42.265625-3.34375-7.429688-8.707031-12.195313-15.300781-12.867188-2.386719-.242187-4.785156.074219-7.128906.945313-.71875.269531-1.195313.492187-1.789063.957031-.507812.324219-4.601562 2.8125-12.65625 4.054688-4.09375.628906-6.902344 4.457031-6.273437 8.550781.632812 4.097656 4.472656 6.90625 8.554687 6.273437 9.429688-1.453125 15.28125-4.34375 17.816406-5.851562 1.441407.246094 5.835938 6.414062 5.527344 18.878906-.019531.769531-.1875 3.296875-.25 3.90625-1.457031 14.21875-7.992187 21.441406-9.871094 21.253906-4.066406-.78125-7.980468 1.875-8.769531 5.933594-10.4375 53.59375-41.800781 84.335938-86.042969 84.335938-44.242187 0-75.605468-30.738282-86.042968-84.335938-.789063-4.058594-4.738282-6.703125-8.800782-5.925781-1.859374.175781-8.382812-7.042969-9.839843-21.261719-.582031-5.703125-.175781-11.3125 1.113281-15.765625.019531-.0625.039062-.125.058594-.1875 1.5-5.046875 3.5625-6.777344 4.144531-6.835937.078125-.007813.226563.019531.394531.082031 3.253906 1.210937 6.921875.015625 8.851563-2.871094.140625-.207031 13.949219-20.582031 32.53125-24.867187 33.488281-7.71875 49.710937 3.777343 65.402343 14.898437 6.886719 4.878906 13.390626 9.488281 20.9375 12.035156 5.164063 1.742188 10.277344 3.203125 15.191407 4.339844 4.039062.933594 8.066406-1.582031 8.996093-5.617187.933594-4.039063-1.582031-8.066407-5.617187-8.996094-4.4375-1.027344-9.070313-2.351563-13.773437-3.941406-5.464844-1.84375-10.839844-5.652344-17.0625-10.0625-15.785157-11.183594-37.40625-26.503907-77.441407-17.273438-18.859375 4.347656-32.984375 19.898438-38.78125 27.273438-.382812.011718-.761719.035156-1.144531.074218-3.351562.339844-6.414062 1.730469-9.058594 4.03125-.308594-.316406-.640625-.628906-.992187-.929687-15.117188-12.914063-27.28125-32.328125-31.75-50.664063-.984375-4.023437-5.035157-6.492187-9.066407-5.511718-4.023437.980468-6.488281 5.039062-5.511718 9.0625 5.179687 21.242187 19.195312 43.664062 36.578125 58.511718.394531.402344.9375 2.292969 1.265625 3.421875.226562.78125.46875 1.625.765625 2.488281-1.289063 5.726563-1.628907 12.214844-.953125 18.828126 1.796875 17.53125 9.921875 30.789062 19.992187 33.996093 5.871094 25.921875 16.851563 47.6875 31.925781 63.195313 5.523438 5.683594 11.605469 10.527344 18.167969 14.503906v33.863281h-31.65625c-19.894531 0-37.132812 6.234375-51.242187 18.53125-11.429688 9.960938-20.632813 24.011719-26.613282 40.628907-.097656.261718-.175781.527343-.238281.796874l-23.15625 96.867188c-2.554687 10.679688-.109375 21.757812 6.707031 30.390625 6.886719 8.726563 17.234376 13.730469 28.394532 13.730469h206.5625c4.144531 0 7.5-3.355469 7.5-7.5 0-4.140625-3.355469-7.5-7.5-7.5h-15.351563l-18.65625-113.386719v-32.480469c0-2.679687-.605469-5.222656-1.683593-7.5 8.761718-3.851562 16.523437-9.847656 22.507812-17.578125h35.125c33.410156 0 56.335938 25.1875 63.558594 48.671875l23.105468 96.640625c1.476563 6.183594.058594 12.601563-3.894531 17.613281-4.023437 5.097657-10.082031 8.019532-16.617187 8.019532h-52.390625c-4.144531 0-7.5 3.359375-7.5 7.5 0 4.144531 3.355469 7.5 7.5 7.5h52.390625c11.15625 0 21.507812-5.003906 28.394531-13.730469 6.8125-8.632813 9.257813-19.710937 6.707031-30.386719zm-134.277344-425.640625c4.800782 1.054688 8.851563 4.683594 11.421876 9.84375-7.320313-1.925781-14.882813-4.488281-22.960938-7.78125 3.730469-2.140625 7.730469-2.898437 11.539062-2.0625zm-212.097656 446.738281c-3.953125-5.007812-5.375-11.425781-3.894531-17.609374l23.058594-96.457032c15.472656-42.5 46.46875-48.855468 63.601562-48.855468h35.324219c5.984375 7.726562 13.738281 13.71875 22.492188 17.570312-1.082032 2.277344-1.683594 4.824219-1.683594 7.507812v32.222657l-18.664063 113.644531h-103.617187c-6.539063 0-12.597656-2.925781-16.617188-8.023438zm174.171875-112.375h-20.273437v-25.472656c0-1.425781 1.15625-2.582031 2.585937-2.582031h15.101563c1.425781 0 2.585937 1.160156 2.585937 2.582031zm-38.734375 120.398438 17.308594-105.398438h22.539062l17.34375 105.398438zm28.605469-163.457031h-.046875c-13.921875-.015625-26.402344-6.316407-34.570312-17.359375v-31.722656c10.660156 3.988281 22.25 6.03125 34.519531 6.03125 12.335937 0 23.988281-2.066407 34.695312-6.101563v31.8125c-8.183593 11.050781-20.671875 17.339844-34.597656 17.339844zm0 0"/><path d="m214.347656 195.644531c-6.703125-8.566406-13.4375-9.527343-17.902344-8.824219-5.199218.820313-9.328124 4.199219-12.433593 8.027344-3.105469-3.828125-7.234375-7.207031-12.433594-8.027344-4.472656-.703124-11.199219.257813-17.902344 8.824219-8.332031 10.648438-22.769531 14.226563-22.890625 14.253907-2.894531.679687-5.113281 3-5.664062 5.921874-.546875 2.917969.679687 5.886719 3.132812 7.570313 2.082032 1.425781 17.847656 11.855469 33.914063 11.855469 3.484375 0 6.984375-.492188 10.363281-1.671875 3.53125-1.234375 7.734375-3.539063 11.480469-7.851563 3.742187 4.3125 7.949219 6.617188 11.476562 7.851563 3.378907 1.179687 6.878907 1.671875 10.363281 1.671875 16.066407 0 31.832032-10.429688 33.917969-11.855469 2.441407-1.675781 3.65625-4.636719 3.121094-7.550781-.535156-2.914063-2.753906-5.242188-5.632813-5.933594-.140624-.035156-14.582031-3.613281-22.910156-14.261719zm-46.742187 23.761719c-5.039063 1.769531-11.496094.535156-17.332031-1.578125 5.179687-3.007813 10.730468-7.207031 15.21875-12.941406 2.203124-2.8125 3.570312-3.292969 3.753906-3.246094 1.488281.230469 4.574218 4.027344 6.738281 8.632813-1.925781 4.835937-4.679687 7.835937-8.378906 9.132812zm32.832031.007812c-3.707031-1.296874-6.46875-4.296874-8.398438-9.140624 2.164063-4.605469 5.25-8.402344 6.738282-8.632813.175781-.03125 1.546875.421875 3.753906 3.246094 4.476562 5.722656 10.019531 9.917969 15.1875 12.925781-5.824219 2.097656-12.28125 3.347656-17.28125 1.601562zm0 0"/></svg>